<svg width="24" height="24" viewBox="0 0 24 24" fill="none" xmlns="http://www.w3.org/2000/svg">
<path d="M23.6259 10.4953C23.4337 10.3725 21.9196 9.46784 21.3196 9.1922L20.5753 7.39222C20.7965 6.79691 21.2212 5.12912 21.2953 4.83841C21.3553 4.56935 21.2737 4.28903 21.0787 4.09403L19.9059 2.92779C19.7119 2.73185 19.4306 2.6503 19.1615 2.71216C18.9403 2.76279 17.2416 3.19216 16.6077 3.43216L14.8077 2.68778C14.5462 2.11217 13.665 0.635609 13.5046 0.381548C13.3603 0.145299 13.1034 0 12.8259 0H11.174C10.8984 0 10.6425 0.14156 10.4953 0.37406C10.3725 0.566245 9.46783 2.0803 9.19219 2.68029L7.39221 3.42467C6.7969 3.20342 5.12911 2.77874 4.8384 2.70468C4.56934 2.64468 4.28902 2.72624 4.09403 2.92124L2.92778 4.09403C2.73185 4.28809 2.6503 4.56935 2.71216 4.83841C2.76279 5.05966 3.19216 6.75839 3.43215 7.39222L2.68778 9.1922C2.11217 9.45375 0.635609 10.335 0.381548 10.4953C0.145299 10.6397 0 10.8966 0 11.1741V12.8231C0 13.0987 0.14156 13.3546 0.37406 13.5028C0.566245 13.6256 2.0803 14.5302 2.68029 14.8059L3.42466 16.6059C3.20342 17.2012 2.77874 18.869 2.70467 19.1597C2.64467 19.4287 2.72624 19.7091 2.92123 19.9031L4.08747 21.0694C4.28153 21.2653 4.56279 21.3469 4.83091 21.2859C5.05216 21.2353 6.75089 20.8059 7.38473 20.5659L9.18471 21.3103C9.44625 21.8859 10.3275 23.3625 10.4878 23.6165C10.6331 23.8565 10.8937 24.0019 11.1741 24H12.8231C13.0987 24 13.3547 23.8584 13.5028 23.6259C13.6256 23.4337 14.5303 21.9197 14.8059 21.3197L16.6059 20.5753C17.2012 20.7966 18.869 21.2212 19.1597 21.2953C19.4287 21.3553 19.7091 21.2737 19.9031 21.0787L21.0694 19.9125C21.2653 19.7184 21.3469 19.4372 21.2859 19.1691C21.2353 18.9478 20.8059 17.2491 20.5659 16.6152L21.3103 14.8153C21.8859 14.5537 23.3625 13.6725 23.6165 13.5122C23.8565 13.3668 24.0019 13.1062 24 12.8259V11.1741C24.0019 10.8984 23.8603 10.6406 23.6259 10.4953ZM12.0002 17.2246C10.6136 17.2237 9.2834 16.6715 8.30373 15.6899C7.32406 14.7084 6.77469 13.3772 6.77562 11.9906C6.77656 10.6031 7.32874 9.27385 8.31028 8.29418C9.29183 7.31451 10.6231 6.76419 12.0096 6.76607C13.3971 6.767 14.7264 7.31919 15.706 8.30073C16.6857 9.28227 17.236 10.6135 17.2341 12.0001C17.2313 13.3866 16.6782 14.7149 15.6976 15.6948C14.7161 16.6735 13.3867 17.2237 12.0002 17.2246Z" fill="#938DB7"/>
</svg>
