<svg width="630" height="253" viewBox="0 0 630 253" fill="none" xmlns="http://www.w3.org/2000/svg">
<path fill-rule="evenodd" clip-rule="evenodd" d="M65.8119 244.373C65.8119 244.373 23.581 244.421 17.6512 203.097C14.8295 157.914 58.4756 149.007 58.4756 149.007C58.4756 149.007 53.5057 82.1186 114.787 74.4949C167.312 69.1333 183.287 117.945 183.287 117.945C183.287 117.945 199.112 102.736 220.57 115.159C239.783 127.02 236.382 148.733 236.382 148.733C236.382 148.733 279.053 157.027 279.053 200.51C278.093 243.945 232.712 244.378 232.712 244.378L65.8096 244.376L65.8119 244.373Z" fill="url(#paint0_linear_1_286)"/>
<g filter="url(#filter0_d_1_286)">
<path d="M356.893 171.892C348.786 188.873 332.97 200.431 314.685 202.736C296.395 205.044 278.022 197.803 265.65 183.41C253.276 169.017 248.512 149.349 252.943 130.924C257.374 112.499 270.414 97.7111 287.746 91.4691C289.883 90.7233 292.268 91.3862 293.8 93.144C295.314 94.9175 295.653 97.4476 294.65 99.5323C289.603 110.093 288.745 122.343 292.263 133.705C295.776 145.068 303.393 154.666 313.513 160.488C323.628 166.31 335.462 167.9 346.533 164.928C347.723 164.609 348.853 164.245 349.973 163.844C352.109 163.093 354.492 163.751 356.024 165.509C357.547 167.274 357.891 169.803 356.894 171.892L356.893 171.892Z" fill="#B0C0DC"/>
</g>
<path d="M614.964 204.803C615.451 217.339 610.938 229.557 602.414 238.779C593.891 248.001 582.051 253.473 569.493 254H383.942C369.881 253.41 356.629 247.283 347.089 236.96C337.548 226.636 332.493 212.957 333.04 198.923C332.494 184.888 337.548 171.212 347.089 160.888C356.629 150.565 369.883 144.435 383.942 143.848C388.021 143.895 392.076 144.474 396.004 145.57C397.319 135.497 402.18 126.218 409.715 119.389C417.248 112.56 426.969 108.622 437.143 108.283C441.69 108.343 446.192 109.207 450.438 110.835C455.72 98.082 464.61 87.1455 476.023 79.3588C487.436 71.5747 500.875 67.2792 514.693 67C534.397 67.8272 552.967 76.4127 566.337 90.8798C579.706 105.347 586.787 124.514 586.023 144.18C586.013 149.028 585.579 153.866 584.729 158.641C593.831 162.412 601.586 168.834 606.977 177.067C612.371 185.3 615.153 194.966 614.965 204.802L614.964 204.803Z" fill="url(#paint1_linear_1_286)"/>
<g filter="url(#filter1_d_1_286)">
<path d="M340.437 122.59C340.773 122.071 341.578 122.287 341.61 122.905L341.798 126.502C341.813 126.779 342.004 127.014 342.271 127.086L345.751 128.018C346.348 128.178 346.392 129.01 345.814 129.232L342.451 130.523C342.193 130.622 342.028 130.876 342.042 131.152L342.231 134.75C342.263 135.368 341.486 135.666 341.097 135.185L338.829 132.386C338.655 132.17 338.362 132.092 338.104 132.191L334.741 133.482C334.163 133.704 333.639 133.057 333.976 132.538L335.938 129.517C336.089 129.285 336.073 128.982 335.899 128.767L333.632 125.967C333.243 125.486 333.696 124.788 334.294 124.948L337.773 125.881C338.041 125.952 338.324 125.844 338.474 125.612L340.437 122.59Z" fill="#B0C0DC"/>
</g>
<g filter="url(#filter2_d_1_286)">
<path d="M306.531 223.763C306.868 223.245 307.672 223.46 307.704 224.078L307.744 224.837C307.759 225.114 307.949 225.349 308.217 225.421L308.951 225.618C309.549 225.778 309.592 226.609 309.015 226.831L308.305 227.103C308.047 227.202 307.881 227.457 307.896 227.733L307.936 228.492C307.968 229.11 307.191 229.409 306.802 228.928L306.323 228.337C306.149 228.122 305.856 228.043 305.598 228.142L304.888 228.415C304.31 228.637 303.786 227.99 304.123 227.471L304.538 226.833C304.688 226.601 304.672 226.298 304.498 226.083L304.02 225.492C303.63 225.011 304.084 224.313 304.681 224.473L305.416 224.67C305.683 224.742 305.966 224.633 306.117 224.401L306.531 223.763Z" fill="#B0C0DC"/>
</g>
<g filter="url(#filter3_d_1_286)">
<path d="M159.577 204.49C159.914 203.971 160.718 204.187 160.75 204.805L161.148 212.405C161.163 212.682 161.354 212.917 161.621 212.989L168.973 214.959C169.571 215.119 169.614 215.95 169.036 216.172L161.931 218.9C161.672 218.999 161.507 219.253 161.522 219.529L161.92 227.13C161.952 227.748 161.175 228.046 160.786 227.566L155.996 221.651C155.822 221.436 155.529 221.357 155.271 221.456L148.165 224.184C147.587 224.406 147.063 223.759 147.4 223.24L151.546 216.856C151.697 216.624 151.681 216.322 151.507 216.107L146.717 210.191C146.327 209.711 146.781 209.012 147.378 209.173L154.73 211.143C154.998 211.214 155.28 211.106 155.431 210.874L159.577 204.49Z" fill="#B0C0DC"/>
</g>
<g filter="url(#filter4_d_1_286)">
<path d="M499.803 178.011C499.674 177.406 500.395 176.99 500.855 177.404L504.542 180.724C504.748 180.909 505.049 180.941 505.289 180.802L509.585 178.322C510.121 178.012 510.74 178.569 510.488 179.135L508.47 183.667C508.358 183.92 508.421 184.216 508.626 184.401L512.313 187.721C512.773 188.135 512.435 188.896 511.819 188.831L506.885 188.313C506.61 188.284 506.347 188.435 506.235 188.688L504.217 193.221C503.965 193.786 503.137 193.699 503.009 193.094L501.977 188.24C501.919 187.97 501.694 187.767 501.419 187.738L496.485 187.219C495.869 187.155 495.696 186.341 496.232 186.031L500.529 183.55C500.769 183.412 500.892 183.135 500.834 182.865L499.803 178.011Z" fill="#B0C0DC"/>
</g>
<g filter="url(#filter5_f_1_286)">
<circle cx="386.03" cy="118.155" r="1.916" fill="#B0C0DC"/>
</g>
<g filter="url(#filter6_f_1_286)">
<circle cx="237.222" cy="117.516" r="1.27733" fill="#B0C0DC"/>
</g>
<g filter="url(#filter7_f_1_286)">
<circle cx="94.1601" cy="185.215" r="2.55467" fill="#B0C0DC"/>
</g>
<defs>
<filter id="filter0_d_1_286" x="225.772" y="65.6202" width="157.233" height="163.086" filterUnits="userSpaceOnUse" color-interpolation-filters="sRGB">
<feFlood flood-opacity="0" result="BackgroundImageFix"/>
<feColorMatrix in="SourceAlpha" type="matrix" values="0 0 0 0 0 0 0 0 0 0 0 0 0 0 0 0 0 0 127 0" result="hardAlpha"/>
<feOffset/>
<feGaussianBlur stdDeviation="12.7733"/>
<feColorMatrix type="matrix" values="0 0 0 0 0.690196 0 0 0 0 0.752941 0 0 0 0 0.862745 0 0 0 0.6 0"/>
<feBlend mode="normal" in2="BackgroundImageFix" result="effect1_dropShadow_1_286"/>
<feBlend mode="normal" in="SourceGraphic" in2="effect1_dropShadow_1_286" result="shape"/>
</filter>
<filter id="filter1_d_1_286" x="325.823" y="114.635" width="28.0653" height="28.4529" filterUnits="userSpaceOnUse" color-interpolation-filters="sRGB">
<feFlood flood-opacity="0" result="BackgroundImageFix"/>
<feColorMatrix in="SourceAlpha" type="matrix" values="0 0 0 0 0 0 0 0 0 0 0 0 0 0 0 0 0 0 127 0" result="hardAlpha"/>
<feOffset/>
<feGaussianBlur stdDeviation="3.832"/>
<feColorMatrix type="matrix" values="0 0 0 0 0.690196 0 0 0 0 0.752941 0 0 0 0 0.862745 0 0 0 1 0"/>
<feBlend mode="normal" in2="BackgroundImageFix" result="effect1_dropShadow_1_286"/>
<feBlend mode="normal" in="SourceGraphic" in2="effect1_dropShadow_1_286" result="shape"/>
</filter>
<filter id="filter2_d_1_286" x="296.211" y="215.808" width="20.8781" height="21.0223" filterUnits="userSpaceOnUse" color-interpolation-filters="sRGB">
<feFlood flood-opacity="0" result="BackgroundImageFix"/>
<feColorMatrix in="SourceAlpha" type="matrix" values="0 0 0 0 0 0 0 0 0 0 0 0 0 0 0 0 0 0 127 0" result="hardAlpha"/>
<feOffset/>
<feGaussianBlur stdDeviation="3.832"/>
<feColorMatrix type="matrix" values="0 0 0 0 0.690196 0 0 0 0 0.752941 0 0 0 0 0.862745 0 0 0 1 0"/>
<feBlend mode="normal" in2="BackgroundImageFix" result="effect1_dropShadow_1_286"/>
<feBlend mode="normal" in="SourceGraphic" in2="effect1_dropShadow_1_286" result="shape"/>
</filter>
<filter id="filter3_d_1_286" x="138.908" y="196.534" width="38.2028" height="38.9336" filterUnits="userSpaceOnUse" color-interpolation-filters="sRGB">
<feFlood flood-opacity="0" result="BackgroundImageFix"/>
<feColorMatrix in="SourceAlpha" type="matrix" values="0 0 0 0 0 0 0 0 0 0 0 0 0 0 0 0 0 0 127 0" result="hardAlpha"/>
<feOffset/>
<feGaussianBlur stdDeviation="3.832"/>
<feColorMatrix type="matrix" values="0 0 0 0 0.690196 0 0 0 0 0.752941 0 0 0 0 0.862745 0 0 0 1 0"/>
<feBlend mode="normal" in2="BackgroundImageFix" result="effect1_dropShadow_1_286"/>
<feBlend mode="normal" in="SourceGraphic" in2="effect1_dropShadow_1_286" result="shape"/>
</filter>
<filter id="filter4_d_1_286" x="488.248" y="169.573" width="31.9424" height="31.6901" filterUnits="userSpaceOnUse" color-interpolation-filters="sRGB">
<feFlood flood-opacity="0" result="BackgroundImageFix"/>
<feColorMatrix in="SourceAlpha" type="matrix" values="0 0 0 0 0 0 0 0 0 0 0 0 0 0 0 0 0 0 127 0" result="hardAlpha"/>
<feOffset/>
<feGaussianBlur stdDeviation="3.832"/>
<feColorMatrix type="matrix" values="0 0 0 0 0.690196 0 0 0 0 0.752941 0 0 0 0 0.862745 0 0 0 1 0"/>
<feBlend mode="normal" in2="BackgroundImageFix" result="effect1_dropShadow_1_286"/>
<feBlend mode="normal" in="SourceGraphic" in2="effect1_dropShadow_1_286" result="shape"/>
</filter>
<filter id="filter5_f_1_286" x="382.837" y="114.961" width="6.38667" height="6.38667" filterUnits="userSpaceOnUse" color-interpolation-filters="sRGB">
<feFlood flood-opacity="0" result="BackgroundImageFix"/>
<feBlend mode="normal" in="SourceGraphic" in2="BackgroundImageFix" result="shape"/>
<feGaussianBlur stdDeviation="0.638667" result="effect1_foregroundBlur_1_286"/>
</filter>
<filter id="filter6_f_1_286" x="234.667" y="114.961" width="5.10933" height="5.10932" filterUnits="userSpaceOnUse" color-interpolation-filters="sRGB">
<feFlood flood-opacity="0" result="BackgroundImageFix"/>
<feBlend mode="normal" in="SourceGraphic" in2="BackgroundImageFix" result="shape"/>
<feGaussianBlur stdDeviation="0.638667" result="effect1_foregroundBlur_1_286"/>
</filter>
<filter id="filter7_f_1_286" x="90.3281" y="181.383" width="7.664" height="7.66401" filterUnits="userSpaceOnUse" color-interpolation-filters="sRGB">
<feFlood flood-opacity="0" result="BackgroundImageFix"/>
<feBlend mode="normal" in="SourceGraphic" in2="BackgroundImageFix" result="shape"/>
<feGaussianBlur stdDeviation="0.638667" result="effect1_foregroundBlur_1_286"/>
</filter>
<linearGradient id="paint0_linear_1_286" x1="195.906" y1="28.9183" x2="64.9266" y2="264.034" gradientUnits="userSpaceOnUse">
<stop stop-color="#7234C8"/>
<stop offset="0.640096" stop-color="#231546"/>
<stop offset="1" stop-color="#1A1236"/>
</linearGradient>
<linearGradient id="paint1_linear_1_286" x1="393.911" y1="-8.48872" x2="567.783" y2="273.395" gradientUnits="userSpaceOnUse">
<stop stop-color="#55239F"/>
<stop offset="0.599692" stop-color="#231546"/>
<stop offset="1" stop-color="#1A1236"/>
</linearGradient>
</defs>
</svg>
