<svg width="12" height="13" viewBox="0 0 12 13" fill="none" xmlns="http://www.w3.org/2000/svg">
<path opacity="0.3" d="M11.6569 0.656854C11.2457 0.245735 10.5793 0.245735 10.1682 0.656854L6 4.82506L1.83179 0.656854C1.42067 0.245735 0.754265 0.245735 0.343146 0.656854C-0.0679734 1.06797 -0.0679733 1.73438 0.343146 2.1455L4.51135 6.31371L0.343146 10.4819C-0.0679734 10.893 -0.0679731 11.5594 0.343146 11.9706C0.754265 12.3817 1.42067 12.3817 1.83179 11.9706L6 7.80235L10.1682 11.9706C10.5793 12.3817 11.2457 12.3817 11.6569 11.9706C12.068 11.5594 12.068 10.893 11.6569 10.4819L7.48865 6.31371L11.6569 2.1455C12.068 1.73438 12.068 1.06797 11.6569 0.656854Z" fill="white"/>
</svg>
