<svg width="28" height="28" viewBox="0 0 28 28" fill="none" xmlns="http://www.w3.org/2000/svg">
<path d="M11.0417 16.7583V19.2742C11.0417 24.0619 6.47509 26.5252 3.99347 23.9818C1.51184 21.4385 3.91532 16.7583 8.58689 16.7583H11.0417ZM9.04865 18.8009H8.58689C5.58325 18.8009 4.26381 21.3702 5.40277 22.5375C6.54172 23.7048 9.04865 22.3525 9.04865 19.2742V18.8009ZM19.4007 3.06502C21.0171 2.7199 22.6004 3.78305 22.9372 5.43964C22.9789 5.64518 23 5.85459 23 6.06454V16.7209C23 21.5086 18.4334 23.9719 15.9518 21.4286C13.4701 18.8852 15.8736 14.205 20.5452 14.205L21.0062 14.2048V9.4036L11.041 11.531L11.0417 17.8508H9.04865V8.57406C9.04865 7.61084 9.127 7.11362 9.36078 6.57829C9.58197 6.07177 9.9182 5.64799 10.3569 5.32276C10.8206 4.97902 11.2796 4.79899 12.1997 4.60254L19.4007 3.06502ZM21.007 16.2477H20.5452C17.5415 16.2477 16.2221 18.8169 17.3611 19.9842C18.5 21.1515 21.007 19.7992 21.007 16.7209V16.2477ZM20.986 5.85624C20.8738 5.30404 20.346 4.94966 19.8072 5.0647L12.6062 6.60222C11.9376 6.74496 11.7284 6.82705 11.525 6.97779C11.3698 7.09282 11.2582 7.23357 11.1799 7.41271C11.0774 7.64748 11.0417 7.87419 11.0417 8.57406L11.041 9.44548L21.0062 7.31809L21.007 6.06454C21.007 6.02955 21.0052 5.9946 21.0017 5.95984L20.986 5.85624Z" fill="#938DB7"/>
</svg>
