<svg width="28" height="28" viewBox="0 0 28 28" fill="none" xmlns="http://www.w3.org/2000/svg">
<path fill-rule="evenodd" clip-rule="evenodd" d="M10 6C10 3.79086 11.7909 2 14 2C16.2091 2 18 3.79086 18 6C18 8.20914 16.2091 10 14 10C11.7909 10 10 8.20914 10 6ZM14 8C12.8954 8 12 7.10457 12 6C12 4.89543 12.8954 4 14 4C15.1046 4 16 4.89543 16 6C16 7.10457 15.1046 8 14 8Z" fill="#938DB7"/>
<path fill-rule="evenodd" clip-rule="evenodd" d="M24.0402 14.1606C21.9125 14.1555 19.9099 13.1312 18.6294 11.3931C18.4482 11.146 18.1601 11 17.8537 11H17.1301C16.5778 11 16.1301 11.4477 16.1301 12V19.3313C16.1301 19.4006 16.0948 19.4651 16.0364 19.5025C15.2973 19.975 14.6601 20.5969 14.1637 21.33C14.0852 21.446 13.9145 21.446 13.836 21.33C13.3396 20.5969 12.7024 19.975 11.9633 19.5025C11.9049 19.4651 11.8696 19.4006 11.8696 19.3313V12C11.8696 11.4477 11.4219 11 10.8696 11H10.1451C9.83926 11 9.55169 11.1457 9.37084 11.3924C8.09038 13.1305 6.08721 14.1555 3.95947 14.1606C3.42957 14.1606 3 14.5902 3 15.1201V15.1645C3 15.694 3.42928 16.1233 3.95883 16.1233C6.0367 16.1184 8.04471 15.3556 9.62199 13.9717C9.75016 13.8592 9.9511 13.9502 9.9511 14.1208V18.4184C9.9511 18.5429 9.83798 18.6367 9.71568 18.6136C9.34548 18.5439 8.96949 18.5081 8.59293 18.5065H8.20712C6.89857 18.5065 5.68969 19.2205 5.03541 20.3799C4.38115 21.5389 4.38112 22.9673 5.03541 24.1266C5.68971 25.2857 6.89859 26 8.20712 26H19.7926C21.1012 26 22.3101 25.2857 22.9643 24.1266C23.6186 22.9672 23.6186 21.5389 22.9643 20.3799C22.3101 19.2205 21.1012 18.5065 19.7926 18.5065H19.4068C19.0303 18.5081 18.6543 18.5439 18.2841 18.6136C18.1618 18.6367 18.0487 18.5429 18.0487 18.4184V14.1208C18.0487 13.9502 18.2496 13.8592 18.3778 13.9717C19.955 15.3556 21.9631 16.1184 24.041 16.1233C24.5706 16.1233 25 15.6939 24.9999 15.1643L24.9999 15.1201C24.9998 14.5902 24.5702 14.1606 24.0402 14.1606ZM6.69681 21.3609C7.00827 20.8089 7.58406 20.4689 8.20716 20.4689H8.59345C9.56107 20.4692 10.5025 20.7926 11.2744 21.3895C12.0466 21.9867 12.607 22.8252 12.8709 23.7778C12.9071 23.9083 12.8089 24.0373 12.6735 24.0373L8.20716 24.0373C7.58399 24.0373 7.00827 23.6972 6.69681 23.1452C6.38536 22.5932 6.3854 21.9131 6.69681 21.3609ZM19.7927 20.4688L19.4064 20.4687C18.4387 20.469 17.4972 20.7925 16.7254 21.3894C15.9532 21.9866 15.3928 22.825 15.1289 23.7777C15.0927 23.9081 15.1909 24.0372 15.3263 24.0372H19.7927C20.4158 24.0372 20.9916 23.6971 21.303 23.1452C21.6145 22.5932 21.6144 21.9131 21.303 21.3609C20.9916 20.8089 20.4158 20.4688 19.7927 20.4688Z" fill="#938DB7"/>
</svg>
