<svg width="28" height="28" viewBox="0 0 28 28" fill="none" xmlns="http://www.w3.org/2000/svg">
<path fill-rule="evenodd" clip-rule="evenodd" d="M4.96115 23.0389C2.34628 20.424 2.34628 16.1844 4.96115 13.5696L13.5696 4.96115C16.1844 2.34629 20.424 2.34628 23.0389 4.96115C25.6537 7.57601 25.6537 11.8156 23.0389 14.4304L14.4304 23.0388C11.8156 25.6537 7.57602 25.6537 4.96115 23.0389ZM11.2361 10.1262L14.9854 6.37695C16.8183 4.544 19.7901 4.544 21.6231 6.37694C23.456 8.20989 23.456 11.1817 21.6231 13.0146L17.8738 16.7639L11.2361 10.1262ZM9.82029 11.542L6.37694 14.9854C4.544 16.8183 4.544 19.7901 6.37694 21.6231C8.20989 23.456 11.1817 23.456 13.0146 21.6231L16.458 18.1797L9.82029 11.542Z" fill="#938DB7"/>
</svg>
