<svg width="28" height="28" viewBox="0 0 28 28" fill="none" xmlns="http://www.w3.org/2000/svg">
<path d="M14 2C20.612 2 26 6.848 26 12.8C26 16.772 22.772 20 18.8 20H16.676C16.34 20 16.076 20.264 16.076 20.6C16.076 20.744 16.136 20.876 16.232 20.996C16.724 21.56 17 22.268 17 23C17 24.656 15.656 26 14 26C7.388 26 2 20.612 2 14C2 7.388 7.388 2 14 2ZM13.9949 4.05371C8.5148 4.05371 4.05371 8.5148 4.05371 13.9949C4.05371 19.4749 8.5148 23.936 13.9949 23.936C14.3428 23.936 14.6162 23.6626 14.6162 23.3147C14.6162 23.1159 14.5168 22.9667 14.4422 22.8798C13.9327 22.3081 13.6593 21.575 13.6593 20.8294C13.6593 19.1145 15.0511 17.7228 16.766 17.7228H18.9654C21.7117 17.7228 23.936 15.4985 23.936 12.7522C23.936 7.95561 19.4749 4.05371 13.9949 4.05371ZM7.4 11.6C8.39411 11.6 9.2 12.4059 9.2 13.4C9.2 14.3941 8.39411 15.2 7.4 15.2C6.40589 15.2 5.6 14.3941 5.6 13.4C5.6 12.4059 6.40589 11.6 7.4 11.6ZM20.6 11.6C21.5941 11.6 22.4 12.4059 22.4 13.4C22.4 14.3941 21.5941 15.2 20.6 15.2C19.6059 15.2 18.8 14.3941 18.8 13.4C18.8 12.4059 19.6059 11.6 20.6 11.6ZM11 6.8C11.9941 6.8 12.8 7.60589 12.8 8.6C12.8 9.59411 11.9941 10.4 11 10.4C10.0059 10.4 9.2 9.59411 9.2 8.6C9.2 7.60589 10.0059 6.8 11 6.8ZM17 6.8C17.9941 6.8 18.8 7.60589 18.8 8.6C18.8 9.59411 17.9941 10.4 17 10.4C16.0059 10.4 15.2 9.59411 15.2 8.6C15.2 7.60589 16.0059 6.8 17 6.8Z" fill="#938DB7"/>
</svg>
