<svg width="24" height="24" viewBox="0 0 24 24" fill="none" xmlns="http://www.w3.org/2000/svg">
<path fill-rule="evenodd" clip-rule="evenodd" d="M13.4366 16.3636C13.4318 16.3636 13.4269 16.3608 13.4221 16.3608H10.5983C10.5924 16.3608 10.5886 16.3636 10.5837 16.3636C10.5789 16.3636 10.574 16.3608 10.5692 16.3608H10.5295V16.3524C10.1428 16.3251 9.83368 16.0196 9.83368 15.637C9.83368 15.2534 10.1428 14.9479 10.5295 14.9197C10.5295 14.9197 11.014 14.9093 11.014 14.4778L11.0159 11.6604C11.0159 11.165 10.5295 11.1622 10.5295 11.1622C10.137 11.1622 9.81818 10.8529 9.81818 10.4712C9.81818 10.0896 10.137 9.78121 10.5295 9.78121V9.78027H12.0799C12.5616 9.78027 12.9521 10.1591 12.9521 10.6263V14.4854C12.9521 14.4854 12.9521 14.9187 13.4366 14.9187C13.8485 14.9187 14.1818 15.2421 14.1818 15.6407C14.1818 16.0402 13.8485 16.3636 13.4366 16.3636ZM11.7708 6.54545C12.4249 6.54545 12.954 7.05968 12.954 7.69235C12.954 8.3269 12.4249 8.84113 11.7708 8.84113C11.1167 8.84113 10.5876 8.3269 10.5876 7.69235C10.5876 7.05968 11.1167 6.54545 11.7708 6.54545Z" fill="#938DB7"/>
<circle cx="12" cy="12" r="10.9091" stroke="#938DB7" stroke-width="2.18182"/>
</svg>
