<svg width="28" height="28" viewBox="0 0 28 28" fill="none" xmlns="http://www.w3.org/2000/svg">
<path d="M14 0C6.27789 0 0 6.27789 0 14C0 21.7221 6.27789 28 14 28C21.7221 28 28 21.7221 28 14C28 6.27789 21.7221 0 14 0ZM14 25.9663C7.39789 25.9663 2.03368 20.6021 2.03368 14C2.03368 7.39789 7.39789 2.03368 14 2.03368C20.6021 2.03368 25.9663 7.39789 25.9663 14C25.9663 20.6021 20.6021 25.9663 14 25.9663Z" fill="#938DB7"/>
<path d="M11.5537 11.3179C11.5537 10.6105 11.1411 9.99158 10.5221 9.69684C10.9642 9.40211 11.3768 9.10737 11.7011 8.81263C11.9958 8.54737 12.0253 8.07579 11.76 7.78105C11.4947 7.48632 11.0232 7.45684 10.7284 7.72211C10.3453 8.07579 9.84421 8.42947 9.31368 8.75368C9.13684 8.87158 8.96 8.96 8.78316 9.04842C8.4 9.28421 8.10526 9.43158 7.81053 9.54947C7.28 9.78526 6.74947 9.99158 6.27789 10.1095C5.89474 10.1979 5.65895 10.6105 5.74737 10.9937C5.83579 11.3179 6.13053 11.5537 6.45474 11.5537C6.51368 11.5537 6.57263 11.5537 6.63158 11.5242C7.04421 11.4358 7.51579 11.2589 7.98737 11.0526C7.98737 11.1411 7.95789 11.2295 7.95789 11.3179C7.95789 12.32 8.78316 13.1158 9.75579 13.1158C10.7579 13.1453 11.5537 12.32 11.5537 11.3179Z" fill="#938DB7"/>
<path d="M21.7221 10.1095C21.2505 9.99158 20.72 9.81474 20.1895 9.54947C19.9242 9.43158 19.6 9.28421 19.1874 9.04842C19.0105 8.96 18.8337 8.8421 18.6568 8.75368C18.0968 8.42947 17.6253 8.07579 17.2421 7.72211C16.9474 7.45684 16.4758 7.48632 16.2105 7.78105C15.9453 8.07579 15.9747 8.54737 16.2695 8.81263C16.5937 9.10737 17.0063 9.40211 17.4484 9.69684C16.8295 9.99158 16.4168 10.6105 16.4168 11.3179C16.4168 12.32 17.2421 13.1158 18.2147 13.1158C19.1874 13.1158 20.0126 12.2905 20.0126 11.3179C20.0126 11.2295 20.0126 11.1411 19.9832 11.0526C20.4547 11.2589 20.9263 11.4063 21.3389 11.5242C21.3979 11.5242 21.4568 11.5537 21.5158 11.5537C21.84 11.5537 22.1347 11.3179 22.2232 10.9937C22.3411 10.6105 22.1053 10.1979 21.7221 10.1095Z" fill="#938DB7"/>
<path d="M14 15.7389C11.7305 15.7389 9.60842 17.0653 8.60632 19.0989C8.37053 19.6 8.57684 20.2189 9.07789 20.4547C9.57895 20.6905 10.1979 20.4842 10.4337 19.9832C11.0821 18.6274 12.4968 17.7432 14.0295 17.7432C15.5621 17.7432 16.9474 18.5979 17.6253 19.9832C17.8021 20.3368 18.1558 20.5432 18.5389 20.5432C18.6863 20.5432 18.8337 20.5137 18.9811 20.4253C19.4821 20.1895 19.6884 19.5705 19.4526 19.0695C18.3916 17.0653 16.2695 15.7389 14 15.7389Z" fill="#938DB7"/>
</svg>
