<svg width="28" height="28" viewBox="0 0 28 28" fill="none" xmlns="http://www.w3.org/2000/svg">
<path d="M18.9516 21.0648C18.4505 21.3006 17.8316 21.0943 17.5958 20.5932C16.9179 19.2079 15.5621 18.3532 14 18.3532C12.4379 18.3532 11.0821 19.2079 10.4042 20.5932C10.1684 21.0943 9.54948 21.3006 9.04843 21.0648C8.54738 20.829 8.34106 20.2101 8.57685 19.709C9.57896 17.6458 11.6716 16.349 13.9705 16.349C16.24 16.349 18.3621 17.6753 19.3642 19.709C19.659 20.2101 19.4526 20.7995 18.9516 21.0648Z" fill="#938DB7"/>
<path d="M14 0C6.27789 0 0 6.27789 0 14C0 21.7221 6.27789 28 14 28C21.7221 28 28 21.7221 28 14C28 6.27789 21.7221 0 14 0ZM14 25.9663C7.39789 25.9663 2.03368 20.6021 2.03368 14C2.03368 7.39789 7.39789 2.03368 14 2.03368C20.6021 2.03368 25.9663 7.39789 25.9663 14C25.9663 20.6021 20.6021 25.9663 14 25.9663Z" fill="#938DB7"/>
<path d="M9.46104 12.4968C10.454 12.4968 11.2589 11.6919 11.2589 10.6989C11.2589 9.70597 10.454 8.90102 9.46104 8.90102C8.46809 8.90102 7.66315 9.70597 7.66315 10.6989C7.66315 11.6919 8.46809 12.4968 9.46104 12.4968Z" fill="#938DB7"/>
<path d="M18.5389 12.4968C19.5319 12.4968 20.3368 11.6919 20.3368 10.6989C20.3368 9.70597 19.5319 8.90102 18.5389 8.90102C17.546 8.90102 16.7411 9.70597 16.7411 10.6989C16.7411 11.6919 17.546 12.4968 18.5389 12.4968Z" fill="#938DB7"/>
</svg>
