<svg width="28" height="28" viewBox="0 0 28 28" fill="none" xmlns="http://www.w3.org/2000/svg">
<path d="M14 0C6.27789 0 0 6.27789 0 14C0 21.7221 6.27789 28 14 28C21.7221 28 28 21.7221 28 14C28 6.27789 21.7221 0 14 0ZM14 25.9663C7.39789 25.9663 2.03368 20.6021 2.03368 14C2.03368 7.39789 7.39789 2.03368 14 2.03368C20.6021 2.03368 25.9663 7.39789 25.9663 14C25.9663 20.6021 20.6021 25.9663 14 25.9663Z" fill="#938DB7"/>
<path d="M9.46105 12.4968C10.454 12.4968 11.2589 11.6919 11.2589 10.6989C11.2589 9.70599 10.454 8.90104 9.46105 8.90104C8.4681 8.90104 7.66316 9.70599 7.66316 10.6989C7.66316 11.6919 8.4681 12.4968 9.46105 12.4968Z" fill="#938DB7"/>
<path d="M18.539 12.4968C19.5319 12.4968 20.3368 11.6919 20.3368 10.6989C20.3368 9.70599 19.5319 8.90104 18.539 8.90104C17.546 8.90104 16.7411 9.70599 16.7411 10.6989C16.7411 11.6919 17.546 12.4968 18.539 12.4968Z" fill="#938DB7"/>
<path d="M17.5368 17.1537H10.4632C9.90315 17.1537 9.46105 17.5958 9.46105 18.1558C9.46105 18.7158 9.90315 19.1579 10.4632 19.1579H17.5368C18.0968 19.1579 18.5389 18.7158 18.5389 18.1558C18.5684 17.5958 18.0968 17.1537 17.5368 17.1537Z" fill="#938DB7"/>
</svg>
