<svg width="28" height="28" viewBox="0 0 28 28" fill="none" xmlns="http://www.w3.org/2000/svg">
<path d="M14 0C6.27789 0 0 6.27789 0 14C0 21.7221 6.27789 28 14 28C21.7221 28 28 21.7221 28 14C28 6.27789 21.7221 0 14 0ZM14 25.9663C7.39789 25.9663 2.03368 20.6021 2.03368 14C2.03368 7.39789 7.39789 2.03368 14 2.03368C20.6021 2.03368 25.9663 7.39789 25.9663 14C25.9663 20.6021 20.6021 25.9663 14 25.9663Z" fill="#938DB7"/>
<path d="M9.46105 12.4968C10.454 12.4968 11.2589 11.6919 11.2589 10.6989C11.2589 9.706 10.454 8.90105 9.46105 8.90105C8.4681 8.90105 7.66316 9.706 7.66316 10.6989C7.66316 11.6919 8.4681 12.4968 9.46105 12.4968Z" fill="#938DB7"/>
<path d="M18.5389 12.4968C19.5319 12.4968 20.3368 11.6919 20.3368 10.6989C20.3368 9.706 19.5319 8.90105 18.5389 8.90105C17.546 8.90105 16.7411 9.706 16.7411 10.6989C16.7411 11.6919 17.546 12.4968 18.5389 12.4968Z" fill="#938DB7"/>
<path d="M7.95789 16.5937C7.95789 19.9242 10.6695 22.6358 13.9705 22.6358C17.2716 22.6358 20.0126 19.9242 20.0126 16.5937V15.5916H7.95789V16.5937ZM17.8611 17.6253C17.4189 19.3347 15.8568 20.6021 14 20.6021C12.1432 20.6021 10.5811 19.3347 10.1389 17.6253H17.8611Z" fill="#938DB7"/>
</svg>
