<svg width="14" height="14" viewBox="0 0 14 14" fill="none" xmlns="http://www.w3.org/2000/svg">
<path d="M7 -1.52588e-05C6.49127 -1.52588e-05 6.07895 0.412303 6.07895 0.921037V6.07893H0.921053C0.412318 6.07893 0 6.49125 0 6.99998C0 7.50872 0.412318 7.92104 0.921053 7.92104H6.07895L6.07895 13.0789C6.07895 13.5877 6.49127 14 7 14C7.50873 14 7.92105 13.5877 7.92105 13.0789L7.92105 7.92104L13.0789 7.92104C13.5877 7.92104 14 7.50872 14 6.99998C14 6.49125 13.5877 6.07893 13.0789 6.07893L7.92105 6.07893V0.921037C7.92105 0.412303 7.50873 -1.52588e-05 7 -1.52588e-05Z" fill="white"/>
</svg>
