<svg width="10" height="10" viewBox="0 0 10 10" fill="none" xmlns="http://www.w3.org/2000/svg">
<path d="M5 10C2.243 10 0 7.757 0 5C0 2.243 2.243 0 5 0C7.757 0 10 2.243 10 5C10 7.757 7.757 10 5 10Z" fill="#B6D830"/>
<path d="M4.03127 3.68178C4.03127 4.05846 3.7055 4.36356 3.30432 4.36356C2.90268 4.36356 2.57737 4.05846 2.57737 3.68178C2.57737 3.30552 2.90268 3 3.30432 3C3.7055 3 4.03127 3.30552 4.03127 3.68178Z" fill="#1A1236"/>
<path d="M7.4234 3.68178C7.4234 4.05846 7.09808 4.36356 6.69645 4.36356C6.29526 4.36356 5.9695 4.05846 5.9695 3.68178C5.9695 3.30552 6.29526 3 6.69645 3C7.09808 3 7.4234 3.30552 7.4234 3.68178Z" fill="#1A1236"/>
<path d="M5.00038 8C3.79597 8 2.67146 7.39066 2.06536 6.40976C1.93133 6.19245 2.00993 5.91419 2.24164 5.78892C2.47381 5.66322 2.77005 5.73736 2.90408 5.95425C3.33707 6.65563 4.14036 7.09113 5.00002 7.09113C5.86009 7.09113 6.66387 6.65564 7.09597 5.95425C7.22954 5.73693 7.52487 5.66151 7.75795 5.78892C7.98966 5.91419 8.06918 6.19245 7.93423 6.40976C7.3295 7.39067 6.20526 8 5.00038 8Z" fill="#1A1236"/>
</svg>
