<svg width="23" height="24" viewBox="0 0 23 24" fill="none" xmlns="http://www.w3.org/2000/svg">

<path d="M20.6003 23.5H2.40041C1.07797 23.5 0.000689972 22.4237 0.000689972 21.1003V4.81762C0.000689972 3.49427 1.07787 2.41697 2.40133 2.41697H20.5994C21.9227 2.41697 23 3.49416 23 4.81762V21.1003C23 22.4236 21.9237 23.5 20.6003 23.5ZM2.40133 4.33441C2.1345 4.33441 1.91709 4.55182 1.91709 4.81865V21.1013C1.91709 21.3681 2.1336 21.5847 2.40044 21.5847H20.6003C20.8671 21.5847 21.0836 21.3681 21.0836 21.1013V4.81865C21.0836 4.55182 20.8662 4.33441 20.5994 4.33441H2.40133ZM22.0414 8.16697H0.958602C0.429439 8.16697 0 7.73753 0 7.20837C0 6.67921 0.429439 6.24977 0.958602 6.24977H22.0414C22.5715 6.24977 23 6.67921 23 7.20837C23 7.73753 22.5715 8.16697 22.0414 8.16697ZM4.79209 5.29209C4.26293 5.29209 3.83349 4.86265 3.83349 4.33349V1.4586C3.83349 0.929439 4.26293 0.5 4.79209 0.5C5.32125 0.5 5.75069 0.929439 5.75069 1.4586V4.33349C5.75069 4.86265 5.32125 5.29209 4.79209 5.29209ZM18.2088 5.29209C17.6788 5.29209 17.2502 4.86265 17.2502 4.33349V1.4586C17.2502 0.929439 17.6788 0.5 18.2088 0.5C18.7389 0.5 19.1674 0.929439 19.1674 1.4586V4.33349C19.1674 4.86265 18.7389 5.29209 18.2088 5.29209Z" fill="white"/>
<path d="M6.70993 18.7095C6.70993 19.987 4.79275 19.987 4.79275 18.7095C4.79275 17.431 6.70993 17.431 6.70993 18.7095Z" fill="white"/>
<path d="M6.70993 14.876C6.70993 16.1535 4.79275 16.1535 4.79275 14.876C4.79275 13.5984 6.70993 13.5984 6.70993 14.876Z" fill="white"/>
<path d="M9.58481 18.7095C9.58481 19.987 7.66763 19.987 7.66763 18.7095C7.66763 17.431 9.58481 17.431 9.58481 18.7095Z" fill="white"/>
<path d="M9.58481 14.876C9.58481 16.1535 7.66763 16.1535 7.66763 14.876C7.66763 13.5984 9.58481 13.5984 9.58481 14.876Z" fill="white"/>
<path d="M9.58481 11.0425C9.58481 12.3209 7.66763 12.3209 7.66763 11.0425C7.66763 9.76496 9.58481 9.76496 9.58481 11.0425Z" fill="white"/>
<path d="M15.3346 18.7095C15.3346 19.987 13.4174 19.987 13.4174 18.7095C13.4174 17.431 15.3346 17.431 15.3346 18.7095Z" fill="white"/>
<path d="M15.3346 14.876C15.3346 16.1535 13.4174 16.1535 13.4174 14.876C13.4174 13.5984 15.3346 13.5984 15.3346 14.876Z" fill="white"/>
<path d="M15.3346 11.0425C15.3346 12.3209 13.4174 12.3209 13.4174 11.0425C13.4174 9.76496 15.3346 9.76496 15.3346 11.0425Z" fill="white"/>
<path d="M18.2095 14.876C18.2095 16.1535 16.2923 16.1535 16.2923 14.876C16.2923 13.5984 18.2095 13.5984 18.2095 14.876Z" fill="white"/>
<path d="M18.2095 11.0425C18.2095 12.3209 16.2923 12.3209 16.2923 11.0425C16.2923 9.76496 18.2095 9.76496 18.2095 11.0425Z" fill="white"/>
<path d="M12.4597 18.7095C12.4597 19.987 10.5425 19.987 10.5425 18.7095C10.5425 17.431 12.4597 17.431 12.4597 18.7095Z" fill="white"/>
<path d="M12.4597 14.876C12.4597 16.1535 10.5425 16.1535 10.5425 14.876C10.5425 13.5984 12.4597 13.5984 12.4597 14.876Z" fill="white"/>
<path d="M12.4597 11.0425C12.4597 12.3209 10.5425 12.3209 10.5425 11.0425C10.5425 9.76496 12.4597 9.76496 12.4597 11.0425Z" fill="white"/>

</svg>
