<svg width="21" height="24" viewBox="0 0 21 24" fill="none" xmlns="http://www.w3.org/2000/svg">

<path d="M2.1913 0.5C0.985795 0.5 0 1.48232 0 2.68358V21.3164C0 22.5177 0.985795 23.5 2.1913 23.5H18.0783C19.6846 23.5 21 22.1893 21 20.5886V3.41144C21 1.81073 19.6846 0.5 18.0783 0.5H2.1913ZM2.1913 2.68358H14.9739V21.3164H2.1913V2.68358ZM18.8459 3.41144V20.5886C18.8459 20.9895 18.5178 21.3164 18.1155 21.3164H17.2025V2.68358H18.1155C18.5164 2.68358 18.8459 3.01197 18.8459 3.41144Z" fill="white"/>
<path d="M4.30993 6.54369C4.30993 6.24124 4.55511 5.99607 4.85755 5.99607H12.5275C12.83 5.99607 13.0751 6.24124 13.0751 6.54369V7.63203C13.0751 7.93447 12.83 8.17965 12.5275 8.17965H4.85755C4.55511 8.17965 4.30993 7.93447 4.30993 7.63203V6.54369Z" fill="white"/>
<path d="M4.30993 10.183C4.30993 9.88054 4.55511 9.63537 4.85755 9.63537H12.5275C12.83 9.63537 13.0751 9.88054 13.0751 10.183V11.2713C13.0751 11.5738 12.83 11.8189 12.5275 11.8189H4.85755C4.55511 11.8189 4.30993 11.5738 4.30993 11.2713V10.183Z" fill="white"/>
</svg>
