<svg width="21" height="24" viewBox="0 0 21 24" fill="none" xmlns="http://www.w3.org/2000/svg">
<path  d="M14.1892 6.67073C14.1892 4.50092 12.4115 2.7439 10.2162 2.7439C8.0209 2.7439 6.24324 4.50092 6.24324 6.67073C6.24324 8.84055 8.0209 10.5976 10.2162 10.5976C12.4115 10.5976 14.1892 8.84055 14.1892 6.67073ZM16.4595 6.67073C16.4595 10.0798 13.6654 12.8415 10.2162 12.8415C6.76707 12.8415 3.97297 10.0798 3.97297 6.67073C3.97297 3.26164 6.76707 0.5 10.2162 0.5C13.6654 0.5 16.4595 3.26164 16.4595 6.67073ZM2.27027 20.2944C2.27027 21.3529 2.17931 21.2561 2.78776 21.2561H18.2122C18.8207 21.2561 18.7297 21.3529 18.7297 20.2944C18.7297 17.7272 14.9792 16.2073 10.5 16.2073C6.02078 16.2073 2.27027 17.7272 2.27027 20.2944ZM0 20.2944C0 15.941 4.87986 13.9634 10.5 13.9634C16.1201 13.9634 21 15.941 21 20.2944C21 22.5568 20.1133 23.5 18.2122 23.5H2.78776C0.886664 23.5 0 22.5568 0 20.2944Z" fill="white"/>
</svg>
